<?xml version="1.0" encoding="utf-8"?>
<!-- Generator: Adobe Illustrator 23.0.5, SVG Export Plug-In . SVG Version: 6.00 Build 0)  -->
<svg version="1.1" id="Layer_1" xmlns="http://www.w3.org/2000/svg" xmlns:xlink="http://www.w3.org/1999/xlink" x="0px" y="0px"
	 viewBox="0 0 466.4 90.1" style="enable-background:new 0 0 466.4 90.1;" xml:space="preserve">
<style type="text/css">
	.st0{fill:#1D1E1B;}
	.st1{fill:#65B43A;}
	.st2{fill-rule:evenodd;clip-rule:evenodd;fill:#1D1E1B;}
</style>
<title>Asset 1</title>
<path class="st0" d="M110.7,17.6v40.2H99.3V17.6H76.9V8.9h56.4v8.7L110.7,17.6z M44,17.4H12V28h30.5c4.8,0,8,0.8,9.7,2.5
	s2.5,4.7,2.5,9.1v6.7c0,4.4-0.8,7.5-2.5,9.1s-4.9,2.5-9.7,2.5H12.2c-4.8,0-8-0.8-9.7-2.5C0.8,53.8,0,50.7,0,46.3V45l10.1-2.1v5.8
	h34.6V37.5H14.1c-4.8,0-8-0.8-9.7-2.5C2.8,33.4,2,30.3,2,25.9v-5.4C2,16,2.8,13,4.5,11.4s4.9-2.4,9.6-2.4h27.8
	c4.6,0,7.8,0.8,9.5,2.4s2.6,4.4,2.6,8.4v1L44,23V17.4z"/>
<path class="st1" d="M407.3,57.9v-49h11.5v20.4L446,8.9h16.5L430,32l36.4,25.9h-18.3l-29.3-21.6v21.5H407.3z M315.2,57.9l27.7-49h11
	l28.1,49h-12.8l-5.9-10.7h-31.1l-5.7,10.7L315.2,57.9z M337.1,38.3h21.5L348,18.4L337.1,38.3z M249.7,57.9v-49h41.8
	c3.9,0,6.7,0.7,8.5,2.2s2.6,3.9,2.6,7.2v10.9c0,3.3-0.9,5.7-2.6,7.2s-4.6,2.2-8.5,2.2h-30.6v19.1H249.7z M286.5,17.3h-25.6v13h25.6
	c2,0,3.3-0.3,4-0.9c0.8-0.8,1.2-1.9,1.1-3v-5.3c0.1-1.1-0.3-2.2-1.1-3C289.8,17.6,288.5,17.3,286.5,17.3z"/>
<path class="st0" d="M451.4,83.8h7.2l-3.6-6.5L451.4,83.8z M444,90.1l9.3-15.7h3.7l9.5,15.7h-4.3l-2-3.4h-10.4l-2,3.4H444z
	 M422.3,66.1h2.3l3,3.8l3-3.8h2.4l-3.4,6.3h-4L422.3,66.1z M418.9,90.1v-1.7l11.5-11.2H420v-2.8h16.5V76l-11.7,11.2h11.7v2.9
	L418.9,90.1z M397.1,83.8h7.2l-3.6-6.5L397.1,83.8z M389.7,90.1l9.3-15.7h3.7l9.5,15.7h-4.3l-2-3.4h-10.4l-2,3.4H389.7z M367.8,90.1
	V74.4h3.9v12.8H384v2.9L367.8,90.1z M345.2,83.8h7.2l-3.7-6.5L345.2,83.8z M337.7,90.1l9.3-15.7h3.7l9.5,15.7h-4.3l-2-3.4h-10.3
	l-2,3.4H337.7z M324.3,83.3h-8.5v4h8.5c0.5,0,1-0.1,1.5-0.3c0.3-0.3,0.4-0.7,0.4-1.1v-1.2c0-0.4-0.1-0.8-0.4-1.1
	C325.3,83.3,324.8,83.2,324.3,83.3L324.3,83.3z M324.3,76.9h-8.5v3.7h8.5c0.5,0,0.9,0,1.4-0.3c0.3-0.2,0.4-0.5,0.4-0.9V78
	c0-0.3-0.1-0.6-0.4-0.8C325.3,77,324.8,76.9,324.3,76.9L324.3,76.9z M312,90.1V74.4h14.1c1-0.1,2,0.2,2.9,0.7
	c0.6,0.6,0.9,1.5,0.9,2.3v1.9c0,0.7-0.2,1.3-0.7,1.8c-0.6,0.5-1.3,0.8-2,0.9c0.8,0.1,1.5,0.4,2.1,1c0.5,0.5,0.8,1.3,0.7,2v2
	c0.1,0.9-0.4,1.8-1.2,2.3c-1.1,0.6-2.4,0.9-3.7,0.8L312,90.1z M279.8,90.1V74.4h3.1l7.7,9.3l7.6-9.3h3.1v15.7h-3.6V79.3l-7,8.9H290
	l-7.1-8.7v10.6H279.8z M257.1,83.8h7.2l-3.6-6.5L257.1,83.8z M249.7,90.1l9.3-15.7h3.7l9.5,15.7h-4.3l-2-3.4h-10.4l-2,3.4H249.7z"/>
<path class="st2" d="M187.6,0.2c-1.4,0.6-2.2,1.1-3.6,1.9l-11.1,6c-2.5,1.4-4.8,2.6-7.3,3.9c-1.2,0.6-2.5,1.4-3.7,2
	c-1,0.6-3.3,1.3-2.2,3c0.5,0.9,22.2,12.3,25.4,14.1c4.1,2.2,2.8,1.9,7.8-0.7c7-3.6,14.9-8.3,22-12c5.3-2.8,1-3.9-4.9-7.1l-14.6-8
	c-1.2-0.6-2.4-1.3-3.7-2S189-0.5,187.6,0.2"/>
<path class="st2" d="M218.8,52.1c0.4-0.7,0.2-23.8,0.2-27.9c0-1.5,0.3-3.4-0.9-3.9s-2.7,0.6-3.5,1l-6.3,3.4
	c-2.2,1.3-4.3,2.3-6.3,3.4s-4.2,2.3-6.3,3.4c-1.2,0.6-5.6,2.8-6,3.6s-0.2,23.8-0.2,27.9c0,1.5-0.3,3.3,0.9,3.9s2.6-0.5,3.5-1
	c4.1-2.3,8.4-4.7,12.6-6.8C208.2,58.2,218.3,52.9,218.8,52.1"/>
<path class="st2" d="M157.9,51.7c0.2,0.9,1.8,1.6,2.7,2.1l9.4,5.1c4.3,2.4,8.4,4.7,12.6,6.9c3.2,1.7,4.7,2.7,4.7-2V45
	c0-12.3,1.5-9-5.8-13.2c-2.2-1.3-4-2.1-6.3-3.4l-12.6-6.9c-3.2-1.6-4.8-2.7-4.7,2.1C157.8,27,157.7,50.6,157.9,51.7"/>
</svg>
